<mxfile host="Electron" agent="Mozilla/5.0 (X11; Linux x86_64) AppleWebKit/537.36 (KHTML, like Gecko) draw.io/26.0.16 Chrome/132.0.6834.196 Electron/34.2.0 Safari/537.36" version="26.0.16">
  <diagram name="Page-1" id="s34llh__NXhLMa71MwE4">
    <mxGraphModel dx="3603" dy="1306" grid="1" gridSize="10" guides="1" tooltips="1" connect="1" arrows="1" fold="1" page="1" pageScale="1" pageWidth="827" pageHeight="1169" math="0" shadow="0">
      <root>
        <mxCell id="0" />
        <mxCell id="1" parent="0" />
        <mxCell id="NtZi-PJopCHLtHp6JKRj-386" value="" style="group;fillColor=#ffe6cc;strokeColor=#d79b00;" parent="1" vertex="1" connectable="0">
          <mxGeometry x="-779.9999999999998" y="240" width="370" height="370" as="geometry" />
        </mxCell>
        <mxCell id="NtZi-PJopCHLtHp6JKRj-387" value="Agendamento" style="text;html=1;align=center;verticalAlign=middle;resizable=0;points=[];autosize=1;strokeColor=none;fillColor=none;fontSize=16;" parent="NtZi-PJopCHLtHp6JKRj-386" vertex="1">
          <mxGeometry width="120" height="30" as="geometry" />
        </mxCell>
        <mxCell id="NtZi-PJopCHLtHp6JKRj-388" value="" style="group" parent="NtZi-PJopCHLtHp6JKRj-386" vertex="1" connectable="0">
          <mxGeometry x="20" y="40" width="330" height="310" as="geometry" />
        </mxCell>
        <mxCell id="NtZi-PJopCHLtHp6JKRj-389" value="..." style="rounded=0;whiteSpace=wrap;html=1;fillColor=#f8cecc;strokeColor=#b85450;" parent="NtZi-PJopCHLtHp6JKRj-388" vertex="1">
          <mxGeometry x="125" y="290" width="80" height="20" as="geometry" />
        </mxCell>
        <mxCell id="NtZi-PJopCHLtHp6JKRj-390" value="" style="group" parent="NtZi-PJopCHLtHp6JKRj-388" vertex="1" connectable="0">
          <mxGeometry width="330" height="50" as="geometry" />
        </mxCell>
        <mxCell id="NtZi-PJopCHLtHp6JKRj-391" value="Serviço" style="rounded=0;whiteSpace=wrap;html=1;" parent="NtZi-PJopCHLtHp6JKRj-390" vertex="1">
          <mxGeometry width="60" height="20" as="geometry" />
        </mxCell>
        <mxCell id="NtZi-PJopCHLtHp6JKRj-392" value="Dt. e hr. agendada" style="rounded=0;whiteSpace=wrap;html=1;" parent="NtZi-PJopCHLtHp6JKRj-390" vertex="1">
          <mxGeometry x="70" width="110" height="20" as="geometry" />
        </mxCell>
        <mxCell id="NtZi-PJopCHLtHp6JKRj-394" value="[ Funcionário atribuído ]" style="rounded=0;whiteSpace=wrap;html=1;" parent="NtZi-PJopCHLtHp6JKRj-390" vertex="1">
          <mxGeometry y="30" width="150" height="20" as="geometry" />
        </mxCell>
        <mxCell id="NtZi-PJopCHLtHp6JKRj-395" value="Local de busca e devolução" style="rounded=0;whiteSpace=wrap;html=1;" parent="NtZi-PJopCHLtHp6JKRj-390" vertex="1">
          <mxGeometry x="160" y="30" width="170" height="20" as="geometry" />
        </mxCell>
        <mxCell id="NtZi-PJopCHLtHp6JKRj-396" value="..." style="rounded=0;whiteSpace=wrap;html=1;" parent="NtZi-PJopCHLtHp6JKRj-390" vertex="1">
          <mxGeometry x="290" width="40" height="20" as="geometry" />
        </mxCell>
        <mxCell id="NtZi-PJopCHLtHp6JKRj-397" value="" style="group" parent="NtZi-PJopCHLtHp6JKRj-386" vertex="1" connectable="0">
          <mxGeometry x="20" y="100" width="330" height="100" as="geometry" />
        </mxCell>
        <mxCell id="NtZi-PJopCHLtHp6JKRj-398" value="" style="group" parent="NtZi-PJopCHLtHp6JKRj-397" vertex="1" connectable="0">
          <mxGeometry width="330" height="100" as="geometry" />
        </mxCell>
        <mxCell id="NtZi-PJopCHLtHp6JKRj-399" value="" style="rounded=0;whiteSpace=wrap;html=1;fillColor=#f8cecc;strokeColor=#b85450;" parent="NtZi-PJopCHLtHp6JKRj-398" vertex="1">
          <mxGeometry width="330" height="100" as="geometry" />
        </mxCell>
        <mxCell id="NtZi-PJopCHLtHp6JKRj-400" value="&lt;font style=&quot;font-size: 12px;&quot;&gt;Pet 1&lt;/font&gt;" style="text;html=1;align=center;verticalAlign=middle;resizable=0;points=[];autosize=1;strokeColor=none;fillColor=none;fontSize=16;" parent="NtZi-PJopCHLtHp6JKRj-398" vertex="1">
          <mxGeometry width="50" height="30" as="geometry" />
        </mxCell>
        <mxCell id="NtZi-PJopCHLtHp6JKRj-401" value="" style="group" parent="NtZi-PJopCHLtHp6JKRj-397" vertex="1" connectable="0">
          <mxGeometry x="10" y="30" width="310" height="50" as="geometry" />
        </mxCell>
        <mxCell id="NtZi-PJopCHLtHp6JKRj-402" value="Dono" style="rounded=0;whiteSpace=wrap;html=1;" parent="NtZi-PJopCHLtHp6JKRj-401" vertex="1">
          <mxGeometry width="50" height="20" as="geometry" />
        </mxCell>
        <mxCell id="NtZi-PJopCHLtHp6JKRj-403" value="Raça" style="rounded=0;whiteSpace=wrap;html=1;" parent="NtZi-PJopCHLtHp6JKRj-401" vertex="1">
          <mxGeometry x="60" width="50" height="20" as="geometry" />
        </mxCell>
        <mxCell id="NtZi-PJopCHLtHp6JKRj-404" value="Nome" style="rounded=0;whiteSpace=wrap;html=1;" parent="NtZi-PJopCHLtHp6JKRj-401" vertex="1">
          <mxGeometry x="120" width="60" height="20" as="geometry" />
        </mxCell>
        <mxCell id="NtZi-PJopCHLtHp6JKRj-405" value="Espécie" style="rounded=0;whiteSpace=wrap;html=1;" parent="NtZi-PJopCHLtHp6JKRj-401" vertex="1">
          <mxGeometry y="30" width="70" height="20" as="geometry" />
        </mxCell>
        <mxCell id="NtZi-PJopCHLtHp6JKRj-406" value="Remédios" style="rounded=0;whiteSpace=wrap;html=1;" parent="NtZi-PJopCHLtHp6JKRj-401" vertex="1">
          <mxGeometry x="80" y="30" width="80" height="20" as="geometry" />
        </mxCell>
        <mxCell id="NtZi-PJopCHLtHp6JKRj-407" value="Cartão de vacina" style="rounded=0;whiteSpace=wrap;html=1;" parent="NtZi-PJopCHLtHp6JKRj-401" vertex="1">
          <mxGeometry x="190" width="120" height="20" as="geometry" />
        </mxCell>
        <mxCell id="NtZi-PJopCHLtHp6JKRj-408" value="..." style="rounded=0;whiteSpace=wrap;html=1;" parent="NtZi-PJopCHLtHp6JKRj-401" vertex="1">
          <mxGeometry x="230" y="30" width="80" height="20" as="geometry" />
        </mxCell>
        <mxCell id="NtZi-PJopCHLtHp6JKRj-409" value="Porte" style="rounded=0;whiteSpace=wrap;html=1;" parent="NtZi-PJopCHLtHp6JKRj-401" vertex="1">
          <mxGeometry x="170" y="30" width="50" height="20" as="geometry" />
        </mxCell>
        <mxCell id="NtZi-PJopCHLtHp6JKRj-410" value="" style="group" parent="NtZi-PJopCHLtHp6JKRj-386" vertex="1" connectable="0">
          <mxGeometry x="20" y="210" width="330" height="100" as="geometry" />
        </mxCell>
        <mxCell id="NtZi-PJopCHLtHp6JKRj-411" value="" style="group" parent="NtZi-PJopCHLtHp6JKRj-410" vertex="1" connectable="0">
          <mxGeometry width="330" height="100" as="geometry" />
        </mxCell>
        <mxCell id="NtZi-PJopCHLtHp6JKRj-412" value="" style="rounded=0;whiteSpace=wrap;html=1;fillColor=#f8cecc;strokeColor=#b85450;" parent="NtZi-PJopCHLtHp6JKRj-411" vertex="1">
          <mxGeometry width="330" height="100" as="geometry" />
        </mxCell>
        <mxCell id="NtZi-PJopCHLtHp6JKRj-413" value="&lt;font style=&quot;font-size: 12px;&quot;&gt;Pet 2&lt;/font&gt;" style="text;html=1;align=center;verticalAlign=middle;resizable=0;points=[];autosize=1;strokeColor=none;fillColor=none;fontSize=16;" parent="NtZi-PJopCHLtHp6JKRj-411" vertex="1">
          <mxGeometry width="50" height="30" as="geometry" />
        </mxCell>
        <mxCell id="NtZi-PJopCHLtHp6JKRj-414" value="" style="group" parent="NtZi-PJopCHLtHp6JKRj-410" vertex="1" connectable="0">
          <mxGeometry x="10" y="30" width="310" height="50" as="geometry" />
        </mxCell>
        <mxCell id="NtZi-PJopCHLtHp6JKRj-415" value="Dono" style="rounded=0;whiteSpace=wrap;html=1;" parent="NtZi-PJopCHLtHp6JKRj-414" vertex="1">
          <mxGeometry width="50" height="20" as="geometry" />
        </mxCell>
        <mxCell id="NtZi-PJopCHLtHp6JKRj-416" value="Raça" style="rounded=0;whiteSpace=wrap;html=1;" parent="NtZi-PJopCHLtHp6JKRj-414" vertex="1">
          <mxGeometry x="60" width="50" height="20" as="geometry" />
        </mxCell>
        <mxCell id="NtZi-PJopCHLtHp6JKRj-417" value="Nome" style="rounded=0;whiteSpace=wrap;html=1;" parent="NtZi-PJopCHLtHp6JKRj-414" vertex="1">
          <mxGeometry x="120" width="60" height="20" as="geometry" />
        </mxCell>
        <mxCell id="NtZi-PJopCHLtHp6JKRj-418" value="Espécie" style="rounded=0;whiteSpace=wrap;html=1;" parent="NtZi-PJopCHLtHp6JKRj-414" vertex="1">
          <mxGeometry y="30" width="70" height="20" as="geometry" />
        </mxCell>
        <mxCell id="NtZi-PJopCHLtHp6JKRj-419" value="Remédios" style="rounded=0;whiteSpace=wrap;html=1;" parent="NtZi-PJopCHLtHp6JKRj-414" vertex="1">
          <mxGeometry x="80" y="30" width="80" height="20" as="geometry" />
        </mxCell>
        <mxCell id="NtZi-PJopCHLtHp6JKRj-420" value="Cartão de vacina" style="rounded=0;whiteSpace=wrap;html=1;" parent="NtZi-PJopCHLtHp6JKRj-414" vertex="1">
          <mxGeometry x="190" width="120" height="20" as="geometry" />
        </mxCell>
        <mxCell id="NtZi-PJopCHLtHp6JKRj-421" value="..." style="rounded=0;whiteSpace=wrap;html=1;" parent="NtZi-PJopCHLtHp6JKRj-414" vertex="1">
          <mxGeometry x="230" y="30" width="80" height="20" as="geometry" />
        </mxCell>
        <mxCell id="NtZi-PJopCHLtHp6JKRj-422" value="Porte" style="rounded=0;whiteSpace=wrap;html=1;" parent="NtZi-PJopCHLtHp6JKRj-414" vertex="1">
          <mxGeometry x="170" y="30" width="50" height="20" as="geometry" />
        </mxCell>
        <mxCell id="NtZi-PJopCHLtHp6JKRj-393" value="É recorrente?" style="rounded=0;whiteSpace=wrap;html=1;" parent="NtZi-PJopCHLtHp6JKRj-386" vertex="1">
          <mxGeometry x="210" y="40" width="90" height="20" as="geometry" />
        </mxCell>
        <mxCell id="NtZi-PJopCHLtHp6JKRj-137" value="" style="group;strokeColor=#6c8ebf;fillColor=#dae8fc;recursiveResize=0;" parent="1" vertex="1" connectable="0">
          <mxGeometry x="274" y="616.25" width="410" height="633.75" as="geometry" />
        </mxCell>
        <mxCell id="NtZi-PJopCHLtHp6JKRj-139" value="Grupo de passeio" style="text;html=1;align=center;verticalAlign=middle;resizable=0;points=[];autosize=1;strokeColor=none;fillColor=none;fontSize=16;" parent="NtZi-PJopCHLtHp6JKRj-137" vertex="1">
          <mxGeometry width="150" height="30" as="geometry" />
        </mxCell>
        <mxCell id="NtZi-PJopCHLtHp6JKRj-140" value="..." style="rounded=0;whiteSpace=wrap;html=1;fillColor=#ffe6cc;strokeColor=#d79b00;" parent="NtZi-PJopCHLtHp6JKRj-137" vertex="1">
          <mxGeometry x="129.32" y="593.75" width="151.35" height="20" as="geometry" />
        </mxCell>
        <mxCell id="NtZi-PJopCHLtHp6JKRj-251" value="Func. atrib." style="rounded=0;whiteSpace=wrap;html=1;" parent="NtZi-PJopCHLtHp6JKRj-137" vertex="1">
          <mxGeometry x="19.99" y="40" width="80.01" height="20" as="geometry" />
        </mxCell>
        <mxCell id="NtZi-PJopCHLtHp6JKRj-58" value="" style="group;fillColor=#ffe6cc;strokeColor=#d79b00;recursiveResize=0;" parent="NtZi-PJopCHLtHp6JKRj-137" vertex="1" connectable="0">
          <mxGeometry x="19.99" y="70" width="370" height="250" as="geometry" />
        </mxCell>
        <mxCell id="NtZi-PJopCHLtHp6JKRj-2" value="Agendamento 1" style="text;html=1;align=center;verticalAlign=middle;resizable=0;points=[];autosize=1;strokeColor=none;fillColor=none;fontSize=16;" parent="NtZi-PJopCHLtHp6JKRj-58" vertex="1">
          <mxGeometry x="0.009999999999999787" width="140" height="30" as="geometry" />
        </mxCell>
        <mxCell id="NtZi-PJopCHLtHp6JKRj-291" value="" style="group" parent="NtZi-PJopCHLtHp6JKRj-58" vertex="1" connectable="0">
          <mxGeometry x="20" y="100" width="330" height="100" as="geometry" />
        </mxCell>
        <mxCell id="NtZi-PJopCHLtHp6JKRj-41" value="" style="group" parent="NtZi-PJopCHLtHp6JKRj-291" vertex="1" connectable="0">
          <mxGeometry width="330" height="100" as="geometry" />
        </mxCell>
        <mxCell id="NtZi-PJopCHLtHp6JKRj-8" value="" style="rounded=0;whiteSpace=wrap;html=1;fillColor=#f8cecc;strokeColor=#b85450;" parent="NtZi-PJopCHLtHp6JKRj-41" vertex="1">
          <mxGeometry width="330" height="100" as="geometry" />
        </mxCell>
        <mxCell id="NtZi-PJopCHLtHp6JKRj-9" value="&lt;font style=&quot;font-size: 12px;&quot;&gt;Pet 1&lt;/font&gt;" style="text;html=1;align=center;verticalAlign=middle;resizable=0;points=[];autosize=1;strokeColor=none;fillColor=none;fontSize=16;" parent="NtZi-PJopCHLtHp6JKRj-41" vertex="1">
          <mxGeometry width="50" height="30" as="geometry" />
        </mxCell>
        <mxCell id="NtZi-PJopCHLtHp6JKRj-42" value="" style="group" parent="NtZi-PJopCHLtHp6JKRj-291" vertex="1" connectable="0">
          <mxGeometry x="10" y="30" width="310" height="50" as="geometry" />
        </mxCell>
        <mxCell id="NtZi-PJopCHLtHp6JKRj-10" value="Dono" style="rounded=0;whiteSpace=wrap;html=1;" parent="NtZi-PJopCHLtHp6JKRj-42" vertex="1">
          <mxGeometry width="50" height="20" as="geometry" />
        </mxCell>
        <mxCell id="NtZi-PJopCHLtHp6JKRj-11" value="Raça" style="rounded=0;whiteSpace=wrap;html=1;" parent="NtZi-PJopCHLtHp6JKRj-42" vertex="1">
          <mxGeometry x="60" width="50" height="20" as="geometry" />
        </mxCell>
        <mxCell id="NtZi-PJopCHLtHp6JKRj-12" value="Nome" style="rounded=0;whiteSpace=wrap;html=1;" parent="NtZi-PJopCHLtHp6JKRj-42" vertex="1">
          <mxGeometry x="120" width="60" height="20" as="geometry" />
        </mxCell>
        <mxCell id="NtZi-PJopCHLtHp6JKRj-13" value="Espécie" style="rounded=0;whiteSpace=wrap;html=1;" parent="NtZi-PJopCHLtHp6JKRj-42" vertex="1">
          <mxGeometry y="30" width="70" height="20" as="geometry" />
        </mxCell>
        <mxCell id="NtZi-PJopCHLtHp6JKRj-14" value="Remédios" style="rounded=0;whiteSpace=wrap;html=1;" parent="NtZi-PJopCHLtHp6JKRj-42" vertex="1">
          <mxGeometry x="80" y="30" width="80" height="20" as="geometry" />
        </mxCell>
        <mxCell id="NtZi-PJopCHLtHp6JKRj-15" value="Cartão de vacina" style="rounded=0;whiteSpace=wrap;html=1;" parent="NtZi-PJopCHLtHp6JKRj-42" vertex="1">
          <mxGeometry x="190" width="120" height="20" as="geometry" />
        </mxCell>
        <mxCell id="NtZi-PJopCHLtHp6JKRj-16" value="..." style="rounded=0;whiteSpace=wrap;html=1;" parent="NtZi-PJopCHLtHp6JKRj-42" vertex="1">
          <mxGeometry x="230" y="30" width="80" height="20" as="geometry" />
        </mxCell>
        <mxCell id="NtZi-PJopCHLtHp6JKRj-18" value="Porte" style="rounded=0;whiteSpace=wrap;html=1;" parent="NtZi-PJopCHLtHp6JKRj-42" vertex="1">
          <mxGeometry x="170" y="30" width="50" height="20" as="geometry" />
        </mxCell>
        <mxCell id="NtZi-PJopCHLtHp6JKRj-6" value="[Funcionário atribuído]" style="rounded=0;whiteSpace=wrap;html=1;" parent="NtZi-PJopCHLtHp6JKRj-58" vertex="1">
          <mxGeometry x="20" y="40" width="140" height="20" as="geometry" />
        </mxCell>
        <mxCell id="NtZi-PJopCHLtHp6JKRj-7" value="Local de busca e devolução" style="rounded=0;whiteSpace=wrap;html=1;" parent="NtZi-PJopCHLtHp6JKRj-58" vertex="1">
          <mxGeometry x="180" y="40" width="170" height="20" as="geometry" />
        </mxCell>
        <mxCell id="NtZi-PJopCHLtHp6JKRj-17" value="..." style="rounded=0;whiteSpace=wrap;html=1;" parent="NtZi-PJopCHLtHp6JKRj-58" vertex="1">
          <mxGeometry x="130" y="70" width="220" height="20" as="geometry" />
        </mxCell>
        <mxCell id="NtZi-PJopCHLtHp6JKRj-39" value="..." style="rounded=0;whiteSpace=wrap;html=1;fillColor=#f8cecc;strokeColor=#b85450;" parent="NtZi-PJopCHLtHp6JKRj-58" vertex="1">
          <mxGeometry x="140.01" y="213.75" width="80" height="20" as="geometry" />
        </mxCell>
        <mxCell id="NtZi-PJopCHLtHp6JKRj-4" value="Hora agendada" style="rounded=0;whiteSpace=wrap;html=1;" parent="NtZi-PJopCHLtHp6JKRj-58" vertex="1">
          <mxGeometry x="20" y="70" width="100" height="20" as="geometry" />
        </mxCell>
        <mxCell id="NtZi-PJopCHLtHp6JKRj-346" value="Hr. de Início e fim" style="rounded=0;whiteSpace=wrap;html=1;" parent="NtZi-PJopCHLtHp6JKRj-137" vertex="1">
          <mxGeometry x="166" y="40" width="104" height="20" as="geometry" />
        </mxCell>
        <mxCell id="NtZi-PJopCHLtHp6JKRj-348" value="Data" style="rounded=0;whiteSpace=wrap;html=1;" parent="NtZi-PJopCHLtHp6JKRj-137" vertex="1">
          <mxGeometry x="110" y="40" width="45.33" height="20" as="geometry" />
        </mxCell>
        <mxCell id="gP3a3o1B-3mFKNz1VgHl-215" value="[Ordem de busca]" style="rounded=0;whiteSpace=wrap;html=1;" parent="NtZi-PJopCHLtHp6JKRj-137" vertex="1">
          <mxGeometry x="280" y="40" width="109.99" height="20" as="geometry" />
        </mxCell>
        <mxCell id="AGo5-dNBtOsMC9ljmfEM-1" value="" style="group;fillColor=#ffe6cc;strokeColor=#d79b00;recursiveResize=0;" vertex="1" connectable="0" parent="NtZi-PJopCHLtHp6JKRj-137">
          <mxGeometry x="20" y="333.75" width="370" height="250" as="geometry" />
        </mxCell>
        <mxCell id="AGo5-dNBtOsMC9ljmfEM-2" value="Agendamento 1" style="text;html=1;align=center;verticalAlign=middle;resizable=0;points=[];autosize=1;strokeColor=none;fillColor=none;fontSize=16;" vertex="1" parent="AGo5-dNBtOsMC9ljmfEM-1">
          <mxGeometry x="0.009999999999999787" width="140" height="30" as="geometry" />
        </mxCell>
        <mxCell id="AGo5-dNBtOsMC9ljmfEM-3" value="" style="group" vertex="1" connectable="0" parent="AGo5-dNBtOsMC9ljmfEM-1">
          <mxGeometry x="20" y="100" width="330" height="100" as="geometry" />
        </mxCell>
        <mxCell id="AGo5-dNBtOsMC9ljmfEM-4" value="" style="group" vertex="1" connectable="0" parent="AGo5-dNBtOsMC9ljmfEM-3">
          <mxGeometry width="330" height="100" as="geometry" />
        </mxCell>
        <mxCell id="AGo5-dNBtOsMC9ljmfEM-5" value="" style="rounded=0;whiteSpace=wrap;html=1;fillColor=#f8cecc;strokeColor=#b85450;" vertex="1" parent="AGo5-dNBtOsMC9ljmfEM-4">
          <mxGeometry width="330" height="100" as="geometry" />
        </mxCell>
        <mxCell id="AGo5-dNBtOsMC9ljmfEM-6" value="&lt;font style=&quot;font-size: 12px;&quot;&gt;Pet 1&lt;/font&gt;" style="text;html=1;align=center;verticalAlign=middle;resizable=0;points=[];autosize=1;strokeColor=none;fillColor=none;fontSize=16;" vertex="1" parent="AGo5-dNBtOsMC9ljmfEM-4">
          <mxGeometry width="50" height="30" as="geometry" />
        </mxCell>
        <mxCell id="AGo5-dNBtOsMC9ljmfEM-7" value="" style="group" vertex="1" connectable="0" parent="AGo5-dNBtOsMC9ljmfEM-3">
          <mxGeometry x="10" y="30" width="310" height="50" as="geometry" />
        </mxCell>
        <mxCell id="AGo5-dNBtOsMC9ljmfEM-8" value="Dono" style="rounded=0;whiteSpace=wrap;html=1;" vertex="1" parent="AGo5-dNBtOsMC9ljmfEM-7">
          <mxGeometry width="50" height="20" as="geometry" />
        </mxCell>
        <mxCell id="AGo5-dNBtOsMC9ljmfEM-9" value="Raça" style="rounded=0;whiteSpace=wrap;html=1;" vertex="1" parent="AGo5-dNBtOsMC9ljmfEM-7">
          <mxGeometry x="60" width="50" height="20" as="geometry" />
        </mxCell>
        <mxCell id="AGo5-dNBtOsMC9ljmfEM-10" value="Nome" style="rounded=0;whiteSpace=wrap;html=1;" vertex="1" parent="AGo5-dNBtOsMC9ljmfEM-7">
          <mxGeometry x="120" width="60" height="20" as="geometry" />
        </mxCell>
        <mxCell id="AGo5-dNBtOsMC9ljmfEM-11" value="Espécie" style="rounded=0;whiteSpace=wrap;html=1;" vertex="1" parent="AGo5-dNBtOsMC9ljmfEM-7">
          <mxGeometry y="30" width="70" height="20" as="geometry" />
        </mxCell>
        <mxCell id="AGo5-dNBtOsMC9ljmfEM-12" value="Remédios" style="rounded=0;whiteSpace=wrap;html=1;" vertex="1" parent="AGo5-dNBtOsMC9ljmfEM-7">
          <mxGeometry x="80" y="30" width="80" height="20" as="geometry" />
        </mxCell>
        <mxCell id="AGo5-dNBtOsMC9ljmfEM-13" value="Cartão de vacina" style="rounded=0;whiteSpace=wrap;html=1;" vertex="1" parent="AGo5-dNBtOsMC9ljmfEM-7">
          <mxGeometry x="190" width="120" height="20" as="geometry" />
        </mxCell>
        <mxCell id="AGo5-dNBtOsMC9ljmfEM-14" value="..." style="rounded=0;whiteSpace=wrap;html=1;" vertex="1" parent="AGo5-dNBtOsMC9ljmfEM-7">
          <mxGeometry x="230" y="30" width="80" height="20" as="geometry" />
        </mxCell>
        <mxCell id="AGo5-dNBtOsMC9ljmfEM-15" value="Porte" style="rounded=0;whiteSpace=wrap;html=1;" vertex="1" parent="AGo5-dNBtOsMC9ljmfEM-7">
          <mxGeometry x="170" y="30" width="50" height="20" as="geometry" />
        </mxCell>
        <mxCell id="AGo5-dNBtOsMC9ljmfEM-16" value="[Funcionário atribuído]" style="rounded=0;whiteSpace=wrap;html=1;" vertex="1" parent="AGo5-dNBtOsMC9ljmfEM-1">
          <mxGeometry x="20" y="40" width="140" height="20" as="geometry" />
        </mxCell>
        <mxCell id="AGo5-dNBtOsMC9ljmfEM-17" value="Local de busca e devolução" style="rounded=0;whiteSpace=wrap;html=1;" vertex="1" parent="AGo5-dNBtOsMC9ljmfEM-1">
          <mxGeometry x="180" y="40" width="170" height="20" as="geometry" />
        </mxCell>
        <mxCell id="AGo5-dNBtOsMC9ljmfEM-18" value="..." style="rounded=0;whiteSpace=wrap;html=1;" vertex="1" parent="AGo5-dNBtOsMC9ljmfEM-1">
          <mxGeometry x="130" y="70" width="220" height="20" as="geometry" />
        </mxCell>
        <mxCell id="AGo5-dNBtOsMC9ljmfEM-19" value="..." style="rounded=0;whiteSpace=wrap;html=1;fillColor=#f8cecc;strokeColor=#b85450;" vertex="1" parent="AGo5-dNBtOsMC9ljmfEM-1">
          <mxGeometry x="140.01" y="213.75" width="80" height="20" as="geometry" />
        </mxCell>
        <mxCell id="AGo5-dNBtOsMC9ljmfEM-20" value="Hora agendada" style="rounded=0;whiteSpace=wrap;html=1;" vertex="1" parent="AGo5-dNBtOsMC9ljmfEM-1">
          <mxGeometry x="20" y="70" width="100" height="20" as="geometry" />
        </mxCell>
        <mxCell id="AGo5-dNBtOsMC9ljmfEM-38" value="" style="group" vertex="1" connectable="0" parent="1">
          <mxGeometry x="-420" y="460" width="920" height="168" as="geometry" />
        </mxCell>
        <mxCell id="AGo5-dNBtOsMC9ljmfEM-39" value="" style="group;flipH=0;" vertex="1" connectable="0" parent="AGo5-dNBtOsMC9ljmfEM-38">
          <mxGeometry y="17.999999999999993" width="920" height="150" as="geometry" />
        </mxCell>
        <mxCell id="AGo5-dNBtOsMC9ljmfEM-40" value="" style="html=1;shadow=1;dashed=0;align=center;verticalAlign=middle;shape=mxgraph.arrows2.bendArrow;dy=22.25;dx=22.25;notch=0;arrowHead=72.99;rounded=1;rotation=-180;fillColor=#dae8fc;strokeColor=#6c8ebf;flipV=1;direction=south;flipH=1;" vertex="1" parent="AGo5-dNBtOsMC9ljmfEM-39">
          <mxGeometry x="6.9697724001342" y="-20" width="920" height="170" as="geometry" />
        </mxCell>
        <mxCell id="AGo5-dNBtOsMC9ljmfEM-41" value="&lt;span style=&quot;color: rgb(51, 51, 51);&quot;&gt;&lt;font style=&quot;font-size: 20px;&quot;&gt;[Formação de grupo de passeio]&lt;/font&gt;&lt;/span&gt;" style="text;html=1;align=center;verticalAlign=middle;whiteSpace=wrap;rounded=0;" vertex="1" parent="AGo5-dNBtOsMC9ljmfEM-39">
          <mxGeometry x="73.5" y="-20" width="663.7" height="40" as="geometry" />
        </mxCell>
        <mxCell id="NtZi-PJopCHLtHp6JKRj-423" value="" style="group;fillColor=#e1d5e7;strokeColor=#9673a6;container=0;" parent="1" vertex="1" connectable="0">
          <mxGeometry x="-150" y="618" width="370" height="411" as="geometry" />
        </mxCell>
        <mxCell id="NtZi-PJopCHLtHp6JKRj-424" value="Agenda de funcionário" style="text;html=1;align=center;verticalAlign=middle;resizable=0;points=[];autosize=1;strokeColor=none;fillColor=none;fontSize=16;" parent="1" vertex="1">
          <mxGeometry x="-149.99999999999977" y="618" width="180" height="30" as="geometry" />
        </mxCell>
        <mxCell id="NtZi-PJopCHLtHp6JKRj-425" value="" style="group" parent="1" vertex="1" connectable="0">
          <mxGeometry x="-129.99999999999977" y="658" width="330" height="310" as="geometry" />
        </mxCell>
        <mxCell id="NtZi-PJopCHLtHp6JKRj-427" value="" style="group" parent="NtZi-PJopCHLtHp6JKRj-425" vertex="1" connectable="0">
          <mxGeometry width="330" height="50" as="geometry" />
        </mxCell>
        <mxCell id="NtZi-PJopCHLtHp6JKRj-428" value="Funcionário" style="rounded=0;whiteSpace=wrap;html=1;" parent="NtZi-PJopCHLtHp6JKRj-427" vertex="1">
          <mxGeometry width="100" height="20" as="geometry" />
        </mxCell>
        <mxCell id="NtZi-PJopCHLtHp6JKRj-433" value="..." style="rounded=0;whiteSpace=wrap;html=1;" parent="NtZi-PJopCHLtHp6JKRj-427" vertex="1">
          <mxGeometry x="290" width="40" height="20" as="geometry" />
        </mxCell>
        <mxCell id="NtZi-PJopCHLtHp6JKRj-429" value="Dia" style="rounded=0;whiteSpace=wrap;html=1;" parent="1" vertex="1">
          <mxGeometry x="-20" y="658" width="60" height="20" as="geometry" />
        </mxCell>
        <mxCell id="NtZi-PJopCHLtHp6JKRj-504" value="" style="group" parent="1" vertex="1" connectable="0">
          <mxGeometry x="-129.99999999999977" y="689" width="330" height="140" as="geometry" />
        </mxCell>
        <mxCell id="NtZi-PJopCHLtHp6JKRj-436" value="" style="rounded=0;whiteSpace=wrap;html=1;fillColor=#ffe6cc;strokeColor=#d79b00;" parent="NtZi-PJopCHLtHp6JKRj-504" vertex="1">
          <mxGeometry width="330" height="140" as="geometry" />
        </mxCell>
        <mxCell id="NtZi-PJopCHLtHp6JKRj-437" value="&lt;font style=&quot;font-size: 12px;&quot;&gt;Agendamento 1&lt;/font&gt;" style="text;html=1;align=center;verticalAlign=middle;resizable=0;points=[];autosize=1;strokeColor=none;fillColor=none;fontSize=16;" parent="NtZi-PJopCHLtHp6JKRj-504" vertex="1">
          <mxGeometry width="110" height="30" as="geometry" />
        </mxCell>
        <mxCell id="NtZi-PJopCHLtHp6JKRj-460" value="" style="group" parent="NtZi-PJopCHLtHp6JKRj-504" vertex="1" connectable="0">
          <mxGeometry x="10" y="30" width="310" height="50" as="geometry" />
        </mxCell>
        <mxCell id="NtZi-PJopCHLtHp6JKRj-462" value="Hora" style="rounded=0;whiteSpace=wrap;html=1;" parent="NtZi-PJopCHLtHp6JKRj-460" vertex="1">
          <mxGeometry x="65.76" width="64.24" height="20" as="geometry" />
        </mxCell>
        <mxCell id="NtZi-PJopCHLtHp6JKRj-463" value="Local de busca e devolução" style="rounded=0;whiteSpace=wrap;html=1;" parent="NtZi-PJopCHLtHp6JKRj-460" vertex="1">
          <mxGeometry x="140" width="170" height="20" as="geometry" />
        </mxCell>
        <mxCell id="NtZi-PJopCHLtHp6JKRj-464" value="..." style="rounded=0;whiteSpace=wrap;html=1;" parent="NtZi-PJopCHLtHp6JKRj-460" vertex="1">
          <mxGeometry y="30" width="310" height="20" as="geometry" />
        </mxCell>
        <mxCell id="NtZi-PJopCHLtHp6JKRj-467" value="" style="rounded=0;whiteSpace=wrap;html=1;fillColor=#f8cecc;strokeColor=#b85450;" parent="NtZi-PJopCHLtHp6JKRj-504" vertex="1">
          <mxGeometry x="10" y="91" width="310" height="39" as="geometry" />
        </mxCell>
        <mxCell id="NtZi-PJopCHLtHp6JKRj-476" value="Pet" style="text;html=1;align=center;verticalAlign=middle;resizable=0;points=[];autosize=1;strokeColor=none;fillColor=none;spacing=0;" parent="NtZi-PJopCHLtHp6JKRj-504" vertex="1">
          <mxGeometry x="9.999999999999773" y="95.5" width="40" height="30" as="geometry" />
        </mxCell>
        <mxCell id="NtZi-PJopCHLtHp6JKRj-477" value="Sexo" style="rounded=0;whiteSpace=wrap;html=1;" parent="NtZi-PJopCHLtHp6JKRj-504" vertex="1">
          <mxGeometry x="56" y="100.5" width="54" height="20" as="geometry" />
        </mxCell>
        <mxCell id="NtZi-PJopCHLtHp6JKRj-478" value="Porte" style="rounded=0;whiteSpace=wrap;html=1;" parent="NtZi-PJopCHLtHp6JKRj-504" vertex="1">
          <mxGeometry x="120" y="100.5" width="60" height="20" as="geometry" />
        </mxCell>
        <mxCell id="NtZi-PJopCHLtHp6JKRj-501" value="É castrado?" style="rounded=0;whiteSpace=wrap;html=1;" parent="NtZi-PJopCHLtHp6JKRj-504" vertex="1">
          <mxGeometry x="190" y="100.5" width="80" height="20" as="geometry" />
        </mxCell>
        <mxCell id="NtZi-PJopCHLtHp6JKRj-502" value="..." style="rounded=0;whiteSpace=wrap;html=1;" parent="NtZi-PJopCHLtHp6JKRj-504" vertex="1">
          <mxGeometry x="280" y="100.5" width="30" height="20" as="geometry" />
        </mxCell>
        <mxCell id="NtZi-PJopCHLtHp6JKRj-505" value="" style="group" parent="1" vertex="1" connectable="0">
          <mxGeometry x="-129.99999999999977" y="839" width="330" height="140" as="geometry" />
        </mxCell>
        <mxCell id="NtZi-PJopCHLtHp6JKRj-506" value="" style="rounded=0;whiteSpace=wrap;html=1;fillColor=#ffe6cc;strokeColor=#d79b00;" parent="NtZi-PJopCHLtHp6JKRj-505" vertex="1">
          <mxGeometry width="330" height="140" as="geometry" />
        </mxCell>
        <mxCell id="NtZi-PJopCHLtHp6JKRj-507" value="&lt;font style=&quot;font-size: 12px;&quot;&gt;Agendamento 2&lt;/font&gt;" style="text;html=1;align=center;verticalAlign=middle;resizable=0;points=[];autosize=1;strokeColor=none;fillColor=none;fontSize=16;" parent="NtZi-PJopCHLtHp6JKRj-505" vertex="1">
          <mxGeometry width="110" height="30" as="geometry" />
        </mxCell>
        <mxCell id="NtZi-PJopCHLtHp6JKRj-508" value="" style="group" parent="NtZi-PJopCHLtHp6JKRj-505" vertex="1" connectable="0">
          <mxGeometry x="10" y="30" width="310" height="50" as="geometry" />
        </mxCell>
        <mxCell id="NtZi-PJopCHLtHp6JKRj-510" value="Hora" style="rounded=0;whiteSpace=wrap;html=1;" parent="NtZi-PJopCHLtHp6JKRj-508" vertex="1">
          <mxGeometry x="65.76" width="64.24" height="20" as="geometry" />
        </mxCell>
        <mxCell id="NtZi-PJopCHLtHp6JKRj-511" value="Local de busca e devolução" style="rounded=0;whiteSpace=wrap;html=1;" parent="NtZi-PJopCHLtHp6JKRj-508" vertex="1">
          <mxGeometry x="140" width="170" height="20" as="geometry" />
        </mxCell>
        <mxCell id="NtZi-PJopCHLtHp6JKRj-512" value="..." style="rounded=0;whiteSpace=wrap;html=1;" parent="NtZi-PJopCHLtHp6JKRj-508" vertex="1">
          <mxGeometry y="30" width="310" height="20" as="geometry" />
        </mxCell>
        <mxCell id="NtZi-PJopCHLtHp6JKRj-513" value="" style="rounded=0;whiteSpace=wrap;html=1;fillColor=#f8cecc;strokeColor=#b85450;" parent="NtZi-PJopCHLtHp6JKRj-505" vertex="1">
          <mxGeometry x="10" y="91" width="310" height="39" as="geometry" />
        </mxCell>
        <mxCell id="NtZi-PJopCHLtHp6JKRj-514" value="Pet" style="text;html=1;align=center;verticalAlign=middle;resizable=0;points=[];autosize=1;strokeColor=none;fillColor=none;spacing=0;" parent="NtZi-PJopCHLtHp6JKRj-505" vertex="1">
          <mxGeometry x="9.999999999999773" y="95.5" width="40" height="30" as="geometry" />
        </mxCell>
        <mxCell id="NtZi-PJopCHLtHp6JKRj-515" value="Sexo" style="rounded=0;whiteSpace=wrap;html=1;" parent="NtZi-PJopCHLtHp6JKRj-505" vertex="1">
          <mxGeometry x="56" y="100.5" width="54" height="20" as="geometry" />
        </mxCell>
        <mxCell id="NtZi-PJopCHLtHp6JKRj-516" value="Porte" style="rounded=0;whiteSpace=wrap;html=1;" parent="NtZi-PJopCHLtHp6JKRj-505" vertex="1">
          <mxGeometry x="120" y="100.5" width="60" height="20" as="geometry" />
        </mxCell>
        <mxCell id="NtZi-PJopCHLtHp6JKRj-517" value="É castrado?" style="rounded=0;whiteSpace=wrap;html=1;" parent="NtZi-PJopCHLtHp6JKRj-505" vertex="1">
          <mxGeometry x="190" y="100.5" width="80" height="20" as="geometry" />
        </mxCell>
        <mxCell id="NtZi-PJopCHLtHp6JKRj-518" value="..." style="rounded=0;whiteSpace=wrap;html=1;" parent="NtZi-PJopCHLtHp6JKRj-505" vertex="1">
          <mxGeometry x="280" y="100.5" width="30" height="20" as="geometry" />
        </mxCell>
        <mxCell id="NtZi-PJopCHLtHp6JKRj-519" value="..." style="rounded=0;whiteSpace=wrap;html=1;fillColor=#ffe6cc;strokeColor=#d79b00;" parent="1" vertex="1">
          <mxGeometry x="-40.670000000000016" y="989" width="151.35" height="20" as="geometry" />
        </mxCell>
        <mxCell id="NtZi-PJopCHLtHp6JKRj-521" value="" style="group;fillColor=#b0e3e6;strokeColor=#0e8088;container=0;" parent="1" vertex="1" connectable="0">
          <mxGeometry x="-990" y="633.5" width="370" height="380" as="geometry" />
        </mxCell>
        <mxCell id="NtZi-PJopCHLtHp6JKRj-522" value="Agendamentos s/ funcionário atribuído" style="text;html=1;align=center;verticalAlign=middle;resizable=0;points=[];autosize=1;strokeColor=none;fillColor=none;fontSize=16;" parent="1" vertex="1">
          <mxGeometry x="-989.9999999999998" y="633.5" width="300" height="30" as="geometry" />
        </mxCell>
        <mxCell id="NtZi-PJopCHLtHp6JKRj-523" value="" style="group" parent="1" vertex="1" connectable="0">
          <mxGeometry x="-969.9999999999998" y="673.5" width="330" height="310" as="geometry" />
        </mxCell>
        <mxCell id="NtZi-PJopCHLtHp6JKRj-528" value="" style="group" parent="1" vertex="1" connectable="0">
          <mxGeometry x="-969.9999999999998" y="673.5" width="330" height="140" as="geometry" />
        </mxCell>
        <mxCell id="NtZi-PJopCHLtHp6JKRj-529" value="" style="rounded=0;whiteSpace=wrap;html=1;fillColor=#ffe6cc;strokeColor=#d79b00;glass=0;shadow=0;" parent="NtZi-PJopCHLtHp6JKRj-528" vertex="1">
          <mxGeometry width="330" height="140" as="geometry" />
        </mxCell>
        <mxCell id="NtZi-PJopCHLtHp6JKRj-530" value="&lt;font style=&quot;font-size: 12px;&quot;&gt;Agendamento 1&lt;/font&gt;" style="text;html=1;align=center;verticalAlign=middle;resizable=0;points=[];autosize=1;strokeColor=none;fillColor=none;fontSize=16;" parent="NtZi-PJopCHLtHp6JKRj-528" vertex="1">
          <mxGeometry width="110" height="30" as="geometry" />
        </mxCell>
        <mxCell id="NtZi-PJopCHLtHp6JKRj-536" value="" style="rounded=0;whiteSpace=wrap;html=1;fillColor=#f8cecc;strokeColor=#b85450;" parent="NtZi-PJopCHLtHp6JKRj-528" vertex="1">
          <mxGeometry x="10" y="91" width="310" height="39" as="geometry" />
        </mxCell>
        <mxCell id="NtZi-PJopCHLtHp6JKRj-537" value="Pet" style="text;html=1;align=center;verticalAlign=middle;resizable=0;points=[];autosize=1;strokeColor=none;fillColor=none;spacing=0;" parent="NtZi-PJopCHLtHp6JKRj-528" vertex="1">
          <mxGeometry x="9.999999999999773" y="95.5" width="40" height="30" as="geometry" />
        </mxCell>
        <mxCell id="NtZi-PJopCHLtHp6JKRj-538" value="Sexo" style="rounded=0;whiteSpace=wrap;html=1;" parent="NtZi-PJopCHLtHp6JKRj-528" vertex="1">
          <mxGeometry x="56" y="100.5" width="54" height="20" as="geometry" />
        </mxCell>
        <mxCell id="NtZi-PJopCHLtHp6JKRj-539" value="Porte" style="rounded=0;whiteSpace=wrap;html=1;" parent="NtZi-PJopCHLtHp6JKRj-528" vertex="1">
          <mxGeometry x="120" y="100.5" width="60" height="20" as="geometry" />
        </mxCell>
        <mxCell id="NtZi-PJopCHLtHp6JKRj-540" value="É castrado?" style="rounded=0;whiteSpace=wrap;html=1;" parent="NtZi-PJopCHLtHp6JKRj-528" vertex="1">
          <mxGeometry x="190" y="100.5" width="80" height="20" as="geometry" />
        </mxCell>
        <mxCell id="NtZi-PJopCHLtHp6JKRj-541" value="..." style="rounded=0;whiteSpace=wrap;html=1;" parent="NtZi-PJopCHLtHp6JKRj-528" vertex="1">
          <mxGeometry x="280" y="100.5" width="30" height="20" as="geometry" />
        </mxCell>
        <mxCell id="NtZi-PJopCHLtHp6JKRj-532" value="Serviço" style="rounded=0;whiteSpace=wrap;html=1;" parent="NtZi-PJopCHLtHp6JKRj-528" vertex="1">
          <mxGeometry x="10" y="30" width="56.36363636363638" height="20" as="geometry" />
        </mxCell>
        <mxCell id="NtZi-PJopCHLtHp6JKRj-535" value="..." style="rounded=0;whiteSpace=wrap;html=1;" parent="NtZi-PJopCHLtHp6JKRj-528" vertex="1">
          <mxGeometry x="290" y="30" width="30" height="20" as="geometry" />
        </mxCell>
        <mxCell id="NtZi-PJopCHLtHp6JKRj-557" value="Serviço" style="rounded=0;whiteSpace=wrap;html=1;" parent="NtZi-PJopCHLtHp6JKRj-528" vertex="1">
          <mxGeometry x="10" y="30" width="60" height="20" as="geometry" />
        </mxCell>
        <mxCell id="gP3a3o1B-3mFKNz1VgHl-77" value="Dt. e hr. agendada" style="rounded=0;whiteSpace=wrap;html=1;" parent="NtZi-PJopCHLtHp6JKRj-528" vertex="1">
          <mxGeometry x="80" y="30" width="110" height="20" as="geometry" />
        </mxCell>
        <mxCell id="gP3a3o1B-3mFKNz1VgHl-78" value="É recorrente?" style="rounded=0;whiteSpace=wrap;html=1;" parent="NtZi-PJopCHLtHp6JKRj-528" vertex="1">
          <mxGeometry x="200" y="30" width="80" height="20" as="geometry" />
        </mxCell>
        <mxCell id="gP3a3o1B-3mFKNz1VgHl-79" value="Duração estimada" style="rounded=0;whiteSpace=wrap;html=1;" parent="NtZi-PJopCHLtHp6JKRj-528" vertex="1">
          <mxGeometry x="10" y="60" width="120" height="20" as="geometry" />
        </mxCell>
        <mxCell id="gP3a3o1B-3mFKNz1VgHl-80" value="Local de busca e devolução" style="rounded=0;whiteSpace=wrap;html=1;" parent="NtZi-PJopCHLtHp6JKRj-528" vertex="1">
          <mxGeometry x="140" y="60" width="180" height="20" as="geometry" />
        </mxCell>
        <mxCell id="NtZi-PJopCHLtHp6JKRj-556" value="..." style="rounded=0;whiteSpace=wrap;html=1;fillColor=#ffe6cc;strokeColor=#d79b00;" parent="1" vertex="1">
          <mxGeometry x="-880.6700000000001" y="973.5" width="151.35" height="20" as="geometry" />
        </mxCell>
        <mxCell id="NtZi-PJopCHLtHp6JKRj-560" value="" style="group;fillColor=#d5e8d4;strokeColor=#82b366;container=0;" parent="1" vertex="1" connectable="0">
          <mxGeometry x="-570" y="633.5" width="370" height="380" as="geometry" />
        </mxCell>
        <mxCell id="NtZi-PJopCHLtHp6JKRj-561" value="Agendamentos c/ funcionário atribuído" style="text;html=1;align=center;verticalAlign=middle;resizable=0;points=[];autosize=1;strokeColor=none;fillColor=none;fontSize=16;" parent="1" vertex="1">
          <mxGeometry x="-569.9999999999998" y="633.5" width="300" height="30" as="geometry" />
        </mxCell>
        <mxCell id="NtZi-PJopCHLtHp6JKRj-562" value="" style="group" parent="1" vertex="1" connectable="0">
          <mxGeometry x="-549.9999999999998" y="673.5" width="330" height="310" as="geometry" />
        </mxCell>
        <mxCell id="NtZi-PJopCHLtHp6JKRj-563" value="" style="group" parent="1" vertex="1" connectable="0">
          <mxGeometry x="-549.9999999999998" y="673.5" width="330" height="140" as="geometry" />
        </mxCell>
        <mxCell id="NtZi-PJopCHLtHp6JKRj-564" value="" style="rounded=0;whiteSpace=wrap;html=1;fillColor=#ffe6cc;strokeColor=#d79b00;" parent="NtZi-PJopCHLtHp6JKRj-563" vertex="1">
          <mxGeometry width="330" height="140" as="geometry" />
        </mxCell>
        <mxCell id="NtZi-PJopCHLtHp6JKRj-565" value="&lt;font style=&quot;font-size: 12px;&quot;&gt;Agendamento 1&lt;/font&gt;" style="text;html=1;align=center;verticalAlign=middle;resizable=0;points=[];autosize=1;strokeColor=none;fillColor=none;fontSize=16;" parent="NtZi-PJopCHLtHp6JKRj-563" vertex="1">
          <mxGeometry width="110" height="30" as="geometry" />
        </mxCell>
        <mxCell id="NtZi-PJopCHLtHp6JKRj-566" value="" style="group" parent="NtZi-PJopCHLtHp6JKRj-563" vertex="1" connectable="0">
          <mxGeometry x="10" y="30" width="310" height="50" as="geometry" />
        </mxCell>
        <mxCell id="NtZi-PJopCHLtHp6JKRj-567" value="Serviço" style="rounded=0;whiteSpace=wrap;html=1;" parent="NtZi-PJopCHLtHp6JKRj-566" vertex="1">
          <mxGeometry width="60" height="20" as="geometry" />
        </mxCell>
        <mxCell id="NtZi-PJopCHLtHp6JKRj-568" value="Dt. e hr. agend." style="rounded=0;whiteSpace=wrap;html=1;" parent="NtZi-PJopCHLtHp6JKRj-566" vertex="1">
          <mxGeometry x="70" width="90" height="20" as="geometry" />
        </mxCell>
        <mxCell id="NtZi-PJopCHLtHp6JKRj-569" value="Local de busca e devol." style="rounded=0;whiteSpace=wrap;html=1;" parent="NtZi-PJopCHLtHp6JKRj-566" vertex="1">
          <mxGeometry x="170" width="140" height="20" as="geometry" />
        </mxCell>
        <mxCell id="NtZi-PJopCHLtHp6JKRj-570" value="..." style="rounded=0;whiteSpace=wrap;html=1;" parent="NtZi-PJopCHLtHp6JKRj-566" vertex="1">
          <mxGeometry x="160" y="30" width="150" height="20" as="geometry" />
        </mxCell>
        <mxCell id="gP3a3o1B-3mFKNz1VgHl-76" value="[ Funcionário atribuído ]" style="rounded=0;whiteSpace=wrap;html=1;" parent="NtZi-PJopCHLtHp6JKRj-566" vertex="1">
          <mxGeometry y="30" width="150" height="20" as="geometry" />
        </mxCell>
        <mxCell id="NtZi-PJopCHLtHp6JKRj-572" value="" style="rounded=0;whiteSpace=wrap;html=1;fillColor=#f8cecc;strokeColor=#b85450;" parent="NtZi-PJopCHLtHp6JKRj-563" vertex="1">
          <mxGeometry x="10" y="91" width="310" height="39" as="geometry" />
        </mxCell>
        <mxCell id="NtZi-PJopCHLtHp6JKRj-573" value="Pet" style="text;html=1;align=center;verticalAlign=middle;resizable=0;points=[];autosize=1;strokeColor=none;fillColor=none;spacing=0;" parent="NtZi-PJopCHLtHp6JKRj-563" vertex="1">
          <mxGeometry x="9.999999999999773" y="95.5" width="40" height="30" as="geometry" />
        </mxCell>
        <mxCell id="NtZi-PJopCHLtHp6JKRj-574" value="Sexo" style="rounded=0;whiteSpace=wrap;html=1;" parent="NtZi-PJopCHLtHp6JKRj-563" vertex="1">
          <mxGeometry x="56" y="100.5" width="54" height="20" as="geometry" />
        </mxCell>
        <mxCell id="NtZi-PJopCHLtHp6JKRj-575" value="Porte" style="rounded=0;whiteSpace=wrap;html=1;" parent="NtZi-PJopCHLtHp6JKRj-563" vertex="1">
          <mxGeometry x="120" y="100.5" width="60" height="20" as="geometry" />
        </mxCell>
        <mxCell id="NtZi-PJopCHLtHp6JKRj-576" value="É castrado?" style="rounded=0;whiteSpace=wrap;html=1;" parent="NtZi-PJopCHLtHp6JKRj-563" vertex="1">
          <mxGeometry x="190" y="100.5" width="80" height="20" as="geometry" />
        </mxCell>
        <mxCell id="NtZi-PJopCHLtHp6JKRj-577" value="..." style="rounded=0;whiteSpace=wrap;html=1;" parent="NtZi-PJopCHLtHp6JKRj-563" vertex="1">
          <mxGeometry x="280" y="100.5" width="30" height="20" as="geometry" />
        </mxCell>
        <mxCell id="NtZi-PJopCHLtHp6JKRj-593" value="..." style="rounded=0;whiteSpace=wrap;html=1;fillColor=#ffe6cc;strokeColor=#d79b00;" parent="1" vertex="1">
          <mxGeometry x="-460.6700000000001" y="973.5" width="151.35" height="20" as="geometry" />
        </mxCell>
        <mxCell id="NtZi-PJopCHLtHp6JKRj-594" value="Atribuição" style="shape=singleArrow;whiteSpace=wrap;html=1;arrowWidth=0.4444444444444457;arrowSize=0.3933333333333326;fillColor=#f5f5f5;strokeColor=#666666;fontColor=#333333;gradientColor=none;shadow=1;" parent="1" vertex="1">
          <mxGeometry x="-630" y="788" width="70" height="60" as="geometry" />
        </mxCell>
        <mxCell id="NtZi-PJopCHLtHp6JKRj-611" value="" style="group" parent="1" vertex="1" connectable="0">
          <mxGeometry x="-897" y="560" width="130" height="80" as="geometry" />
        </mxCell>
        <mxCell id="NtZi-PJopCHLtHp6JKRj-612" value="" style="group" parent="NtZi-PJopCHLtHp6JKRj-611" vertex="1" connectable="0">
          <mxGeometry y="17.999999999999993" width="130" height="60.00000000000001" as="geometry" />
        </mxCell>
        <mxCell id="NtZi-PJopCHLtHp6JKRj-598" value="" style="html=1;shadow=1;dashed=0;align=center;verticalAlign=middle;shape=mxgraph.arrows2.bendArrow;dy=10;dx=25;notch=0;arrowHead=44;rounded=1;rotation=-180;fillColor=#b0e3e6;strokeColor=#0e8088;flipV=1;direction=south;" parent="NtZi-PJopCHLtHp6JKRj-612" vertex="1">
          <mxGeometry y="7.105427357601002e-15" width="130" height="60" as="geometry" />
        </mxCell>
        <mxCell id="NtZi-PJopCHLtHp6JKRj-609" value="&lt;span style=&quot;color: rgb(51, 51, 51);&quot;&gt;Sem funcionário&lt;/span&gt;" style="text;html=1;align=center;verticalAlign=middle;whiteSpace=wrap;rounded=0;" parent="NtZi-PJopCHLtHp6JKRj-612" vertex="1">
          <mxGeometry x="27.000000000000057" y="7.105427357601002e-15" width="94.81" height="20" as="geometry" />
        </mxCell>
        <mxCell id="NtZi-PJopCHLtHp6JKRj-613" value="" style="group" parent="1" vertex="1" connectable="0">
          <mxGeometry x="-420" y="560" width="130" height="80" as="geometry" />
        </mxCell>
        <mxCell id="NtZi-PJopCHLtHp6JKRj-614" value="" style="group;flipH=0;" parent="NtZi-PJopCHLtHp6JKRj-613" vertex="1" connectable="0">
          <mxGeometry y="17.999999999999993" width="130" height="60.00000000000001" as="geometry" />
        </mxCell>
        <mxCell id="NtZi-PJopCHLtHp6JKRj-615" value="" style="html=1;shadow=1;dashed=0;align=center;verticalAlign=middle;shape=mxgraph.arrows2.bendArrow;dy=10;dx=25;notch=0;arrowHead=44;rounded=1;rotation=-180;fillColor=#d5e8d4;strokeColor=#82b366;flipV=1;direction=south;flipH=1;" parent="NtZi-PJopCHLtHp6JKRj-614" vertex="1">
          <mxGeometry y="7.105427357601002e-15" width="130" height="60" as="geometry" />
        </mxCell>
        <mxCell id="NtZi-PJopCHLtHp6JKRj-616" value="&lt;span style=&quot;color: rgb(51, 51, 51);&quot;&gt;Com funcionário&lt;/span&gt;" style="text;html=1;align=center;verticalAlign=middle;whiteSpace=wrap;rounded=0;" parent="NtZi-PJopCHLtHp6JKRj-614" vertex="1">
          <mxGeometry x="10.500000000000057" y="7.105427357601002e-15" width="94.81" height="20" as="geometry" />
        </mxCell>
        <mxCell id="NtZi-PJopCHLtHp6JKRj-617" value="*Compõe*" style="shape=singleArrow;whiteSpace=wrap;html=1;arrowWidth=0.4444444444444457;arrowSize=0.3933333333333326;fillColor=#f5f5f5;strokeColor=#666666;fontColor=#333333;gradientColor=none;shadow=1;" parent="1" vertex="1">
          <mxGeometry x="-210.17000000000002" y="788" width="70" height="60" as="geometry" />
        </mxCell>
        <mxCell id="NtZi-PJopCHLtHp6JKRj-618" value="" style="shape=note2;boundedLbl=1;whiteSpace=wrap;html=1;size=24;verticalAlign=top;align=center;" parent="1" vertex="1">
          <mxGeometry x="274" y="530" width="156" height="76.25" as="geometry" />
        </mxCell>
        <mxCell id="NtZi-PJopCHLtHp6JKRj-619" value="Os grupos identificam com quais pets o funcionário deverá passear." style="text;html=1;align=center;verticalAlign=middle;whiteSpace=wrap;rounded=0;" parent="1" vertex="1">
          <mxGeometry x="280" y="539.38" width="126" height="57.5" as="geometry" />
        </mxCell>
        <mxCell id="NtZi-PJopCHLtHp6JKRj-622" value="" style="shape=note2;boundedLbl=1;whiteSpace=wrap;html=1;size=18;verticalAlign=top;align=center;" parent="1" vertex="1">
          <mxGeometry x="-1050" y="525" width="146" height="100" as="geometry" />
        </mxCell>
        <mxCell id="NtZi-PJopCHLtHp6JKRj-623" value="Será causado por agendamentos recorrentes (funcionários não são definidos automáticamente)." style="text;html=1;align=center;verticalAlign=middle;whiteSpace=wrap;rounded=0;" parent="1" vertex="1">
          <mxGeometry x="-1040" y="530" width="120" height="90" as="geometry" />
        </mxCell>
        <mxCell id="NtZi-PJopCHLtHp6JKRj-624" value="" style="shape=note2;boundedLbl=1;whiteSpace=wrap;html=1;size=24;verticalAlign=top;align=center;" parent="1" vertex="1">
          <mxGeometry x="-960" y="280" width="170" height="70" as="geometry" />
        </mxCell>
        <mxCell id="NtZi-PJopCHLtHp6JKRj-625" value="Agendamentos com a opção de atribuir, ou não, um funcionário &lt;b&gt;durante&lt;/b&gt; o cadastro." style="text;html=1;align=center;verticalAlign=middle;whiteSpace=wrap;rounded=0;" parent="1" vertex="1">
          <mxGeometry x="-960" y="286.25" width="150" height="57.5" as="geometry" />
        </mxCell>
        <mxCell id="gP3a3o1B-3mFKNz1VgHl-81" value="" style="group" parent="1" vertex="1" connectable="0">
          <mxGeometry x="-969.9999999999998" y="820" width="330" height="140" as="geometry" />
        </mxCell>
        <mxCell id="gP3a3o1B-3mFKNz1VgHl-82" value="" style="rounded=0;whiteSpace=wrap;html=1;fillColor=#ffe6cc;strokeColor=#d79b00;glass=0;shadow=0;" parent="gP3a3o1B-3mFKNz1VgHl-81" vertex="1">
          <mxGeometry width="330" height="140" as="geometry" />
        </mxCell>
        <mxCell id="gP3a3o1B-3mFKNz1VgHl-83" value="&lt;font style=&quot;font-size: 12px;&quot;&gt;Agendamento 2&lt;/font&gt;" style="text;html=1;align=center;verticalAlign=middle;resizable=0;points=[];autosize=1;strokeColor=none;fillColor=none;fontSize=16;" parent="gP3a3o1B-3mFKNz1VgHl-81" vertex="1">
          <mxGeometry width="110" height="30" as="geometry" />
        </mxCell>
        <mxCell id="gP3a3o1B-3mFKNz1VgHl-84" value="" style="rounded=0;whiteSpace=wrap;html=1;fillColor=#f8cecc;strokeColor=#b85450;" parent="gP3a3o1B-3mFKNz1VgHl-81" vertex="1">
          <mxGeometry x="10" y="91" width="310" height="39" as="geometry" />
        </mxCell>
        <mxCell id="gP3a3o1B-3mFKNz1VgHl-85" value="Pet" style="text;html=1;align=center;verticalAlign=middle;resizable=0;points=[];autosize=1;strokeColor=none;fillColor=none;spacing=0;" parent="gP3a3o1B-3mFKNz1VgHl-81" vertex="1">
          <mxGeometry x="9.999999999999773" y="95.5" width="40" height="30" as="geometry" />
        </mxCell>
        <mxCell id="gP3a3o1B-3mFKNz1VgHl-86" value="Sexo" style="rounded=0;whiteSpace=wrap;html=1;" parent="gP3a3o1B-3mFKNz1VgHl-81" vertex="1">
          <mxGeometry x="56" y="100.5" width="44" height="20" as="geometry" />
        </mxCell>
        <mxCell id="gP3a3o1B-3mFKNz1VgHl-87" value="Porte" style="rounded=0;whiteSpace=wrap;html=1;" parent="gP3a3o1B-3mFKNz1VgHl-81" vertex="1">
          <mxGeometry x="110" y="100.5" width="70" height="20" as="geometry" />
        </mxCell>
        <mxCell id="gP3a3o1B-3mFKNz1VgHl-88" value="É castrado?" style="rounded=0;whiteSpace=wrap;html=1;" parent="gP3a3o1B-3mFKNz1VgHl-81" vertex="1">
          <mxGeometry x="190" y="100.5" width="80" height="20" as="geometry" />
        </mxCell>
        <mxCell id="gP3a3o1B-3mFKNz1VgHl-89" value="..." style="rounded=0;whiteSpace=wrap;html=1;" parent="gP3a3o1B-3mFKNz1VgHl-81" vertex="1">
          <mxGeometry x="280" y="100.5" width="30" height="20" as="geometry" />
        </mxCell>
        <mxCell id="gP3a3o1B-3mFKNz1VgHl-90" value="Serviço" style="rounded=0;whiteSpace=wrap;html=1;" parent="gP3a3o1B-3mFKNz1VgHl-81" vertex="1">
          <mxGeometry x="10" y="30" width="56.36363636363638" height="20" as="geometry" />
        </mxCell>
        <mxCell id="gP3a3o1B-3mFKNz1VgHl-91" value="..." style="rounded=0;whiteSpace=wrap;html=1;" parent="gP3a3o1B-3mFKNz1VgHl-81" vertex="1">
          <mxGeometry x="290" y="30" width="30" height="20" as="geometry" />
        </mxCell>
        <mxCell id="gP3a3o1B-3mFKNz1VgHl-92" value="Serviço" style="rounded=0;whiteSpace=wrap;html=1;" parent="gP3a3o1B-3mFKNz1VgHl-81" vertex="1">
          <mxGeometry x="10" y="30" width="70" height="20" as="geometry" />
        </mxCell>
        <mxCell id="gP3a3o1B-3mFKNz1VgHl-93" value="Data e Hora" style="rounded=0;whiteSpace=wrap;html=1;" parent="gP3a3o1B-3mFKNz1VgHl-81" vertex="1">
          <mxGeometry x="90" y="30" width="80" height="20" as="geometry" />
        </mxCell>
        <mxCell id="gP3a3o1B-3mFKNz1VgHl-94" value="É recorrente?" style="rounded=0;whiteSpace=wrap;html=1;" parent="gP3a3o1B-3mFKNz1VgHl-81" vertex="1">
          <mxGeometry x="180" y="30" width="100" height="20" as="geometry" />
        </mxCell>
        <mxCell id="gP3a3o1B-3mFKNz1VgHl-95" value="Duração estimada" style="rounded=0;whiteSpace=wrap;html=1;" parent="gP3a3o1B-3mFKNz1VgHl-81" vertex="1">
          <mxGeometry x="10" y="60" width="120" height="20" as="geometry" />
        </mxCell>
        <mxCell id="gP3a3o1B-3mFKNz1VgHl-96" value="[Local de busca e devolução]" style="rounded=0;whiteSpace=wrap;html=1;" parent="gP3a3o1B-3mFKNz1VgHl-81" vertex="1">
          <mxGeometry x="140" y="60" width="180" height="20" as="geometry" />
        </mxCell>
        <mxCell id="gP3a3o1B-3mFKNz1VgHl-97" value="" style="group" parent="1" vertex="1" connectable="0">
          <mxGeometry x="-549.9999999999998" y="820" width="330" height="140" as="geometry" />
        </mxCell>
        <mxCell id="gP3a3o1B-3mFKNz1VgHl-98" value="" style="rounded=0;whiteSpace=wrap;html=1;fillColor=#ffe6cc;strokeColor=#d79b00;" parent="gP3a3o1B-3mFKNz1VgHl-97" vertex="1">
          <mxGeometry width="330" height="140" as="geometry" />
        </mxCell>
        <mxCell id="gP3a3o1B-3mFKNz1VgHl-99" value="&lt;font style=&quot;font-size: 12px;&quot;&gt;Agendamento 2&lt;/font&gt;" style="text;html=1;align=center;verticalAlign=middle;resizable=0;points=[];autosize=1;strokeColor=none;fillColor=none;fontSize=16;" parent="gP3a3o1B-3mFKNz1VgHl-97" vertex="1">
          <mxGeometry width="110" height="30" as="geometry" />
        </mxCell>
        <mxCell id="gP3a3o1B-3mFKNz1VgHl-100" value="" style="group" parent="gP3a3o1B-3mFKNz1VgHl-97" vertex="1" connectable="0">
          <mxGeometry x="10" y="30" width="310" height="50" as="geometry" />
        </mxCell>
        <mxCell id="gP3a3o1B-3mFKNz1VgHl-101" value="Serviço" style="rounded=0;whiteSpace=wrap;html=1;" parent="gP3a3o1B-3mFKNz1VgHl-100" vertex="1">
          <mxGeometry width="56.36363636363638" height="20" as="geometry" />
        </mxCell>
        <mxCell id="gP3a3o1B-3mFKNz1VgHl-102" value="Data e Hora" style="rounded=0;whiteSpace=wrap;html=1;" parent="gP3a3o1B-3mFKNz1VgHl-100" vertex="1">
          <mxGeometry x="65.76" width="74.24" height="20" as="geometry" />
        </mxCell>
        <mxCell id="gP3a3o1B-3mFKNz1VgHl-103" value="[Local de busca e devol.]" style="rounded=0;whiteSpace=wrap;html=1;" parent="gP3a3o1B-3mFKNz1VgHl-100" vertex="1">
          <mxGeometry x="150" width="160" height="20" as="geometry" />
        </mxCell>
        <mxCell id="gP3a3o1B-3mFKNz1VgHl-104" value="..." style="rounded=0;whiteSpace=wrap;html=1;" parent="gP3a3o1B-3mFKNz1VgHl-100" vertex="1">
          <mxGeometry x="160" y="30" width="150" height="20" as="geometry" />
        </mxCell>
        <mxCell id="gP3a3o1B-3mFKNz1VgHl-105" value="[ Funcionário atribuído ]" style="rounded=0;whiteSpace=wrap;html=1;" parent="gP3a3o1B-3mFKNz1VgHl-100" vertex="1">
          <mxGeometry y="30" width="150" height="20" as="geometry" />
        </mxCell>
        <mxCell id="gP3a3o1B-3mFKNz1VgHl-106" value="" style="rounded=0;whiteSpace=wrap;html=1;fillColor=#f8cecc;strokeColor=#b85450;" parent="gP3a3o1B-3mFKNz1VgHl-97" vertex="1">
          <mxGeometry x="10" y="91" width="310" height="39" as="geometry" />
        </mxCell>
        <mxCell id="gP3a3o1B-3mFKNz1VgHl-107" value="Pet" style="text;html=1;align=center;verticalAlign=middle;resizable=0;points=[];autosize=1;strokeColor=none;fillColor=none;spacing=0;" parent="gP3a3o1B-3mFKNz1VgHl-97" vertex="1">
          <mxGeometry x="9.999999999999773" y="95.5" width="40" height="30" as="geometry" />
        </mxCell>
        <mxCell id="gP3a3o1B-3mFKNz1VgHl-108" value="Sexo" style="rounded=0;whiteSpace=wrap;html=1;" parent="gP3a3o1B-3mFKNz1VgHl-97" vertex="1">
          <mxGeometry x="56" y="100.5" width="54" height="20" as="geometry" />
        </mxCell>
        <mxCell id="gP3a3o1B-3mFKNz1VgHl-109" value="Porte" style="rounded=0;whiteSpace=wrap;html=1;" parent="gP3a3o1B-3mFKNz1VgHl-97" vertex="1">
          <mxGeometry x="120" y="100.5" width="60" height="20" as="geometry" />
        </mxCell>
        <mxCell id="gP3a3o1B-3mFKNz1VgHl-110" value="É castrado?" style="rounded=0;whiteSpace=wrap;html=1;" parent="gP3a3o1B-3mFKNz1VgHl-97" vertex="1">
          <mxGeometry x="190" y="100.5" width="80" height="20" as="geometry" />
        </mxCell>
        <mxCell id="gP3a3o1B-3mFKNz1VgHl-111" value="..." style="rounded=0;whiteSpace=wrap;html=1;" parent="gP3a3o1B-3mFKNz1VgHl-97" vertex="1">
          <mxGeometry x="280" y="100.5" width="30" height="20" as="geometry" />
        </mxCell>
        <mxCell id="gP3a3o1B-3mFKNz1VgHl-131" value="" style="group;strokeColor=#6c8ebf;fillColor=#dae8fc;recursiveResize=0;" parent="1" vertex="1" connectable="0">
          <mxGeometry x="760" y="686.25" width="410" height="233.75" as="geometry" />
        </mxCell>
        <mxCell id="gP3a3o1B-3mFKNz1VgHl-132" value="Passeio realizado" style="text;html=1;align=center;verticalAlign=middle;resizable=0;points=[];autosize=1;strokeColor=none;fillColor=none;fontSize=16;" parent="gP3a3o1B-3mFKNz1VgHl-131" vertex="1">
          <mxGeometry width="150" height="30" as="geometry" />
        </mxCell>
        <mxCell id="gP3a3o1B-3mFKNz1VgHl-212" value="Pets participantes" style="rounded=0;whiteSpace=wrap;html=1;fillColor=#f8cecc;strokeColor=#b85450;" parent="gP3a3o1B-3mFKNz1VgHl-131" vertex="1">
          <mxGeometry x="19.187567567567612" y="40" width="130.8108108108108" height="20" as="geometry" />
        </mxCell>
        <mxCell id="gP3a3o1B-3mFKNz1VgHl-213" value="[Grupo de passeio relacionado]" style="rounded=0;whiteSpace=wrap;html=1;" parent="gP3a3o1B-3mFKNz1VgHl-131" vertex="1">
          <mxGeometry x="160" y="40" width="190" height="20" as="geometry" />
        </mxCell>
        <mxCell id="gP3a3o1B-3mFKNz1VgHl-117" value="" style="group;fillColor=#f5f5f5;strokeColor=#666666;fontColor=#333333;recursiveResize=0;" parent="gP3a3o1B-3mFKNz1VgHl-131" vertex="1" connectable="0">
          <mxGeometry x="20" y="70" width="370" height="143.75" as="geometry" />
        </mxCell>
        <mxCell id="gP3a3o1B-3mFKNz1VgHl-118" value="Serviço realizado" style="text;html=1;align=center;verticalAlign=middle;resizable=0;points=[];autosize=1;strokeColor=none;fillColor=none;fontSize=16;" parent="gP3a3o1B-3mFKNz1VgHl-117" vertex="1">
          <mxGeometry width="150" height="30" as="geometry" />
        </mxCell>
        <mxCell id="gP3a3o1B-3mFKNz1VgHl-127" value="[Agendamento]" style="rounded=0;whiteSpace=wrap;html=1;fillColor=#ffe6cc;strokeColor=#d79b00;" parent="gP3a3o1B-3mFKNz1VgHl-117" vertex="1">
          <mxGeometry x="20" y="101" width="100" height="20" as="geometry" />
        </mxCell>
        <mxCell id="gP3a3o1B-3mFKNz1VgHl-128" value="[Local de busca e devol.]" style="rounded=0;whiteSpace=wrap;html=1;" parent="gP3a3o1B-3mFKNz1VgHl-117" vertex="1">
          <mxGeometry x="190" y="101" width="160" height="20" as="geometry" />
        </mxCell>
        <mxCell id="gP3a3o1B-3mFKNz1VgHl-129" value="[Obs.]" style="rounded=0;whiteSpace=wrap;html=1;" parent="gP3a3o1B-3mFKNz1VgHl-117" vertex="1">
          <mxGeometry x="130" y="101" width="50" height="20" as="geometry" />
        </mxCell>
        <mxCell id="gP3a3o1B-3mFKNz1VgHl-120" value="Serviço" style="rounded=0;whiteSpace=wrap;html=1;" parent="gP3a3o1B-3mFKNz1VgHl-117" vertex="1">
          <mxGeometry x="20" y="40" width="60" height="20" as="geometry" />
        </mxCell>
        <mxCell id="gP3a3o1B-3mFKNz1VgHl-121" value="Data e Hora iniciado" style="rounded=0;whiteSpace=wrap;html=1;" parent="gP3a3o1B-3mFKNz1VgHl-117" vertex="1">
          <mxGeometry x="90" y="40" width="120" height="20" as="geometry" />
        </mxCell>
        <mxCell id="gP3a3o1B-3mFKNz1VgHl-122" value="Funcionário atribuído" style="rounded=0;whiteSpace=wrap;html=1;" parent="gP3a3o1B-3mFKNz1VgHl-117" vertex="1">
          <mxGeometry x="20" y="70" width="130" height="20" as="geometry" />
        </mxCell>
        <mxCell id="gP3a3o1B-3mFKNz1VgHl-123" value="Data e Hora concluído" style="rounded=0;whiteSpace=wrap;html=1;" parent="gP3a3o1B-3mFKNz1VgHl-117" vertex="1">
          <mxGeometry x="220" y="40" width="130" height="20" as="geometry" />
        </mxCell>
        <mxCell id="gP3a3o1B-3mFKNz1VgHl-124" value="Valor cobrado" style="rounded=0;whiteSpace=wrap;html=1;" parent="gP3a3o1B-3mFKNz1VgHl-117" vertex="1">
          <mxGeometry x="160" y="70" width="100" height="20" as="geometry" />
        </mxCell>
        <mxCell id="gP3a3o1B-3mFKNz1VgHl-125" value="[Incidentes]" style="rounded=0;whiteSpace=wrap;html=1;" parent="gP3a3o1B-3mFKNz1VgHl-117" vertex="1">
          <mxGeometry x="270" y="70" width="80" height="20" as="geometry" />
        </mxCell>
        <mxCell id="gP3a3o1B-3mFKNz1VgHl-214" value="Serviço filtrado" style="rounded=0;whiteSpace=wrap;html=1;" parent="1" vertex="1">
          <mxGeometry x="50" y="658" width="100" height="20" as="geometry" />
        </mxCell>
        <mxCell id="gP3a3o1B-3mFKNz1VgHl-219" value="" style="group" parent="1" vertex="1" connectable="0">
          <mxGeometry x="520" y="540" width="166" height="70" as="geometry" />
        </mxCell>
        <mxCell id="gP3a3o1B-3mFKNz1VgHl-217" value="" style="shape=note2;boundedLbl=1;whiteSpace=wrap;html=1;size=24;verticalAlign=top;align=center;" parent="gP3a3o1B-3mFKNz1VgHl-219" vertex="1">
          <mxGeometry width="166" height="70" as="geometry" />
        </mxCell>
        <mxCell id="gP3a3o1B-3mFKNz1VgHl-218" value="A ordem de busca de pet poderia ser definida manualmente p/ orientar o funcionário." style="text;html=1;align=center;verticalAlign=middle;whiteSpace=wrap;rounded=0;" parent="gP3a3o1B-3mFKNz1VgHl-219" vertex="1">
          <mxGeometry x="10" y="6.25" width="130" height="57.5" as="geometry" />
        </mxCell>
        <mxCell id="gP3a3o1B-3mFKNz1VgHl-220" value="" style="group" parent="1" vertex="1" connectable="0">
          <mxGeometry x="770" y="580" width="166" height="90" as="geometry" />
        </mxCell>
        <mxCell id="gP3a3o1B-3mFKNz1VgHl-221" value="" style="shape=note2;boundedLbl=1;whiteSpace=wrap;html=1;size=24;verticalAlign=top;align=center;" parent="gP3a3o1B-3mFKNz1VgHl-220" vertex="1">
          <mxGeometry x="-10" width="160" height="87" as="geometry" />
        </mxCell>
        <mxCell id="gP3a3o1B-3mFKNz1VgHl-223" value="" style="group;strokeColor=#6c8ebf;fillColor=#dae8fc;recursiveResize=0;" parent="1" vertex="1" connectable="0">
          <mxGeometry x="760" y="950" width="410" height="233.75" as="geometry" />
        </mxCell>
        <mxCell id="gP3a3o1B-3mFKNz1VgHl-224" value="Passeio realizado" style="text;html=1;align=center;verticalAlign=middle;resizable=0;points=[];autosize=1;strokeColor=none;fillColor=none;fontSize=16;" parent="gP3a3o1B-3mFKNz1VgHl-223" vertex="1">
          <mxGeometry width="150" height="30" as="geometry" />
        </mxCell>
        <mxCell id="gP3a3o1B-3mFKNz1VgHl-225" value="Pets participantes" style="rounded=0;whiteSpace=wrap;html=1;fillColor=#f8cecc;strokeColor=#b85450;" parent="gP3a3o1B-3mFKNz1VgHl-223" vertex="1">
          <mxGeometry x="19.187567567567612" y="40" width="130.8108108108108" height="20" as="geometry" />
        </mxCell>
        <mxCell id="gP3a3o1B-3mFKNz1VgHl-226" value="[Grupo de passeio relacionado]" style="rounded=0;whiteSpace=wrap;html=1;" parent="gP3a3o1B-3mFKNz1VgHl-223" vertex="1">
          <mxGeometry x="160" y="40" width="190" height="20" as="geometry" />
        </mxCell>
        <mxCell id="gP3a3o1B-3mFKNz1VgHl-227" value="" style="group;fillColor=#f5f5f5;strokeColor=#666666;fontColor=#333333;recursiveResize=0;" parent="gP3a3o1B-3mFKNz1VgHl-223" vertex="1" connectable="0">
          <mxGeometry x="20" y="70" width="370" height="143.75" as="geometry" />
        </mxCell>
        <mxCell id="gP3a3o1B-3mFKNz1VgHl-228" value="Serviço realizado" style="text;html=1;align=center;verticalAlign=middle;resizable=0;points=[];autosize=1;strokeColor=none;fillColor=none;fontSize=16;" parent="gP3a3o1B-3mFKNz1VgHl-227" vertex="1">
          <mxGeometry width="150" height="30" as="geometry" />
        </mxCell>
        <mxCell id="gP3a3o1B-3mFKNz1VgHl-229" value="[Agendamento]" style="rounded=0;whiteSpace=wrap;html=1;fillColor=#ffe6cc;strokeColor=#d79b00;" parent="gP3a3o1B-3mFKNz1VgHl-227" vertex="1">
          <mxGeometry x="20" y="101" width="100" height="20" as="geometry" />
        </mxCell>
        <mxCell id="gP3a3o1B-3mFKNz1VgHl-230" value="[Local de busca e devol.]" style="rounded=0;whiteSpace=wrap;html=1;" parent="gP3a3o1B-3mFKNz1VgHl-227" vertex="1">
          <mxGeometry x="190" y="101" width="160" height="20" as="geometry" />
        </mxCell>
        <mxCell id="gP3a3o1B-3mFKNz1VgHl-231" value="[Obs.]" style="rounded=0;whiteSpace=wrap;html=1;" parent="gP3a3o1B-3mFKNz1VgHl-227" vertex="1">
          <mxGeometry x="130" y="101" width="50" height="20" as="geometry" />
        </mxCell>
        <mxCell id="gP3a3o1B-3mFKNz1VgHl-232" value="Serviço" style="rounded=0;whiteSpace=wrap;html=1;" parent="gP3a3o1B-3mFKNz1VgHl-227" vertex="1">
          <mxGeometry x="20" y="40" width="60" height="20" as="geometry" />
        </mxCell>
        <mxCell id="gP3a3o1B-3mFKNz1VgHl-233" value="Data e Hora iniciado" style="rounded=0;whiteSpace=wrap;html=1;" parent="gP3a3o1B-3mFKNz1VgHl-227" vertex="1">
          <mxGeometry x="90" y="40" width="120" height="20" as="geometry" />
        </mxCell>
        <mxCell id="gP3a3o1B-3mFKNz1VgHl-234" value="Funcionário atribuído" style="rounded=0;whiteSpace=wrap;html=1;" parent="gP3a3o1B-3mFKNz1VgHl-227" vertex="1">
          <mxGeometry x="20" y="70" width="130" height="20" as="geometry" />
        </mxCell>
        <mxCell id="gP3a3o1B-3mFKNz1VgHl-235" value="Data e Hora concluído" style="rounded=0;whiteSpace=wrap;html=1;" parent="gP3a3o1B-3mFKNz1VgHl-227" vertex="1">
          <mxGeometry x="220" y="40" width="130" height="20" as="geometry" />
        </mxCell>
        <mxCell id="gP3a3o1B-3mFKNz1VgHl-236" value="Valor cobrado" style="rounded=0;whiteSpace=wrap;html=1;" parent="gP3a3o1B-3mFKNz1VgHl-227" vertex="1">
          <mxGeometry x="160" y="70" width="100" height="20" as="geometry" />
        </mxCell>
        <mxCell id="gP3a3o1B-3mFKNz1VgHl-237" value="[Incidentes]" style="rounded=0;whiteSpace=wrap;html=1;" parent="gP3a3o1B-3mFKNz1VgHl-227" vertex="1">
          <mxGeometry x="270" y="70" width="80" height="20" as="geometry" />
        </mxCell>
        <mxCell id="AGo5-dNBtOsMC9ljmfEM-21" value="..." style="rounded=0;whiteSpace=wrap;html=1;fillColor=#dae8fc;strokeColor=#6c8ebf;" vertex="1" parent="1">
          <mxGeometry x="889.33" y="1198" width="151.35" height="20" as="geometry" />
        </mxCell>
        <mxCell id="AGo5-dNBtOsMC9ljmfEM-23" value="" style="labelPosition=right;align=left;strokeWidth=2;shape=mxgraph.mockup.markup.curlyBrace;html=1;shadow=0;dashed=0;strokeColor=#999999;direction=north;" vertex="1" parent="1">
          <mxGeometry x="700" y="680" width="50" height="536.88" as="geometry" />
        </mxCell>
        <mxCell id="AGo5-dNBtOsMC9ljmfEM-27" value="*Gera*" style="shape=singleArrow;whiteSpace=wrap;html=1;arrowWidth=0.4;arrowSize=0.4;fillColor=#f5f5f5;strokeColor=#666666;shadow=1;rotation=0;fontColor=#333333;" vertex="1" parent="1">
          <mxGeometry x="650" y="720" width="120" height="60" as="geometry" />
        </mxCell>
        <mxCell id="AGo5-dNBtOsMC9ljmfEM-28" value="*Gera*" style="shape=singleArrow;whiteSpace=wrap;html=1;arrowWidth=0.4;arrowSize=0.4;fillColor=#f5f5f5;strokeColor=#666666;shadow=1;rotation=0;fontColor=#333333;" vertex="1" parent="1">
          <mxGeometry x="650" y="990" width="120" height="60" as="geometry" />
        </mxCell>
        <mxCell id="AGo5-dNBtOsMC9ljmfEM-44" value="" style="group" vertex="1" connectable="0" parent="1">
          <mxGeometry x="-426" y="400" width="1496" height="310.00428571428574" as="geometry" />
        </mxCell>
        <mxCell id="AGo5-dNBtOsMC9ljmfEM-45" value="" style="group;flipH=0;" vertex="1" connectable="0" parent="AGo5-dNBtOsMC9ljmfEM-44">
          <mxGeometry y="33.21428571428571" width="1496" height="276.79" as="geometry" />
        </mxCell>
        <mxCell id="AGo5-dNBtOsMC9ljmfEM-46" value="" style="html=1;shadow=1;dashed=0;align=center;verticalAlign=middle;shape=mxgraph.arrows2.bendArrow;dy=24.4;dx=35.1;notch=0;arrowHead=78.48;rounded=1;rotation=-180;fillColor=#dae8fc;strokeColor=#6c8ebf;flipV=1;direction=south;flipH=1;" vertex="1" parent="AGo5-dNBtOsMC9ljmfEM-45">
          <mxGeometry x="11.33" y="-36.9" width="1437.33" height="296.79" as="geometry" />
        </mxCell>
        <mxCell id="AGo5-dNBtOsMC9ljmfEM-47" value="&lt;font color=&quot;#333333&quot;&gt;&lt;span style=&quot;font-size: 20px;&quot;&gt;[Passeio exclusivo para um cliente e seus pets]&lt;/span&gt;&lt;/font&gt;" style="text;html=1;align=center;verticalAlign=middle;whiteSpace=wrap;rounded=0;" vertex="1" parent="AGo5-dNBtOsMC9ljmfEM-45">
          <mxGeometry x="110" y="-36.9" width="600" height="46.9" as="geometry" />
        </mxCell>
        <mxCell id="NtZi-PJopCHLtHp6JKRj-620" value="" style="shape=note2;boundedLbl=1;whiteSpace=wrap;html=1;size=24;verticalAlign=top;align=center;" parent="AGo5-dNBtOsMC9ljmfEM-45" vertex="1">
          <mxGeometry x="276" y="86.78571428571428" width="190" height="90" as="geometry" />
        </mxCell>
        <mxCell id="NtZi-PJopCHLtHp6JKRj-621" value="Agendamentos associados ao funcionário, para determinado dia (feito &lt;b&gt;depois ou durante&lt;/b&gt; o cadastro do agendamento)." style="text;html=1;align=center;verticalAlign=middle;whiteSpace=wrap;rounded=0;" parent="AGo5-dNBtOsMC9ljmfEM-45" vertex="1">
          <mxGeometry x="285.83000000000004" y="94.91571428571427" width="153" height="73.75" as="geometry" />
        </mxCell>
        <mxCell id="gP3a3o1B-3mFKNz1VgHl-222" value="Registro individual de um dos passeios gerados, ou não, por um grupo de passeio." style="text;html=1;align=center;verticalAlign=middle;whiteSpace=wrap;rounded=0;" parent="AGo5-dNBtOsMC9ljmfEM-45" vertex="1">
          <mxGeometry x="1196" y="146.79" width="124" height="90" as="geometry" />
        </mxCell>
        <mxCell id="AGo5-dNBtOsMC9ljmfEM-87" value="" style="group;recursiveResize=0;fillColor=#fff2cc;strokeColor=#d6b656;container=0;" vertex="1" connectable="0" parent="1">
          <mxGeometry x="-1091.3400000000001" y="40.010000000000005" width="210.67" height="120" as="geometry" />
        </mxCell>
        <mxCell id="AGo5-dNBtOsMC9ljmfEM-106" value="" style="group;fillColor=#f5f5f5;strokeColor=#666666;fontColor=#333333;recursiveResize=0;" vertex="1" connectable="0" parent="1">
          <mxGeometry x="-500" y="28.129999999999995" width="370" height="143.75" as="geometry" />
        </mxCell>
        <mxCell id="AGo5-dNBtOsMC9ljmfEM-107" value="Serviço realizado" style="text;html=1;align=center;verticalAlign=middle;resizable=0;points=[];autosize=1;strokeColor=none;fillColor=none;fontSize=16;" vertex="1" parent="AGo5-dNBtOsMC9ljmfEM-106">
          <mxGeometry width="150" height="30" as="geometry" />
        </mxCell>
        <mxCell id="AGo5-dNBtOsMC9ljmfEM-108" value="[Agendamento]" style="rounded=0;whiteSpace=wrap;html=1;fillColor=#ffe6cc;strokeColor=#d79b00;" vertex="1" parent="AGo5-dNBtOsMC9ljmfEM-106">
          <mxGeometry x="20" y="101" width="100" height="20" as="geometry" />
        </mxCell>
        <mxCell id="AGo5-dNBtOsMC9ljmfEM-109" value="[Local de busca e devol.]" style="rounded=0;whiteSpace=wrap;html=1;" vertex="1" parent="AGo5-dNBtOsMC9ljmfEM-106">
          <mxGeometry x="190" y="101" width="160" height="20" as="geometry" />
        </mxCell>
        <mxCell id="AGo5-dNBtOsMC9ljmfEM-110" value="[Obs.]" style="rounded=0;whiteSpace=wrap;html=1;" vertex="1" parent="AGo5-dNBtOsMC9ljmfEM-106">
          <mxGeometry x="130" y="101" width="50" height="20" as="geometry" />
        </mxCell>
        <mxCell id="AGo5-dNBtOsMC9ljmfEM-111" value="Serviço" style="rounded=0;whiteSpace=wrap;html=1;" vertex="1" parent="AGo5-dNBtOsMC9ljmfEM-106">
          <mxGeometry x="20" y="40" width="60" height="20" as="geometry" />
        </mxCell>
        <mxCell id="AGo5-dNBtOsMC9ljmfEM-112" value="Data e Hora iniciado" style="rounded=0;whiteSpace=wrap;html=1;" vertex="1" parent="AGo5-dNBtOsMC9ljmfEM-106">
          <mxGeometry x="90" y="40" width="120" height="20" as="geometry" />
        </mxCell>
        <mxCell id="AGo5-dNBtOsMC9ljmfEM-113" value="Funcionário atribuído" style="rounded=0;whiteSpace=wrap;html=1;" vertex="1" parent="AGo5-dNBtOsMC9ljmfEM-106">
          <mxGeometry x="20" y="70" width="130" height="20" as="geometry" />
        </mxCell>
        <mxCell id="AGo5-dNBtOsMC9ljmfEM-114" value="Data e Hora concluído" style="rounded=0;whiteSpace=wrap;html=1;" vertex="1" parent="AGo5-dNBtOsMC9ljmfEM-106">
          <mxGeometry x="220" y="40" width="130" height="20" as="geometry" />
        </mxCell>
        <mxCell id="AGo5-dNBtOsMC9ljmfEM-115" value="Valor cobrado" style="rounded=0;whiteSpace=wrap;html=1;" vertex="1" parent="AGo5-dNBtOsMC9ljmfEM-106">
          <mxGeometry x="160" y="70" width="100" height="20" as="geometry" />
        </mxCell>
        <mxCell id="AGo5-dNBtOsMC9ljmfEM-116" value="[Incidentes]" style="rounded=0;whiteSpace=wrap;html=1;" vertex="1" parent="AGo5-dNBtOsMC9ljmfEM-106">
          <mxGeometry x="270" y="70" width="80" height="20" as="geometry" />
        </mxCell>
        <mxCell id="AGo5-dNBtOsMC9ljmfEM-88" value="Cliente" style="text;html=1;align=center;verticalAlign=middle;resizable=0;points=[];autosize=1;strokeColor=none;fillColor=none;fontSize=16;" vertex="1" parent="1">
          <mxGeometry x="-1091.3400000000001" y="40.010000000000005" width="70" height="30" as="geometry" />
        </mxCell>
        <mxCell id="AGo5-dNBtOsMC9ljmfEM-89" value="Telefone" style="rounded=0;whiteSpace=wrap;html=1;" vertex="1" parent="1">
          <mxGeometry x="-1071.3400000000001" y="110.01" width="70" height="20" as="geometry" />
        </mxCell>
        <mxCell id="AGo5-dNBtOsMC9ljmfEM-93" value="..." style="rounded=0;whiteSpace=wrap;html=1;" vertex="1" parent="1">
          <mxGeometry x="-990.67" y="110.01" width="90" height="20" as="geometry" />
        </mxCell>
        <mxCell id="AGo5-dNBtOsMC9ljmfEM-91" value="Nome" style="rounded=0;whiteSpace=wrap;html=1;" vertex="1" parent="1">
          <mxGeometry x="-1071.3400000000001" y="80.01" width="60" height="20" as="geometry" />
        </mxCell>
        <mxCell id="AGo5-dNBtOsMC9ljmfEM-92" value="Endereço" style="rounded=0;whiteSpace=wrap;html=1;" vertex="1" parent="1">
          <mxGeometry x="-1001.34" y="80.01" width="100.67" height="20" as="geometry" />
        </mxCell>
        <mxCell id="AGo5-dNBtOsMC9ljmfEM-121" value="" style="group" vertex="1" connectable="0" parent="1">
          <mxGeometry x="-783" y="40" width="223" height="110" as="geometry" />
        </mxCell>
        <mxCell id="AGo5-dNBtOsMC9ljmfEM-48" value="" style="group;fillColor=#e1d5e7;strokeColor=#9673a6;recursiveResize=0;container=0;" vertex="1" connectable="0" parent="AGo5-dNBtOsMC9ljmfEM-121">
          <mxGeometry width="223" height="110" as="geometry" />
        </mxCell>
        <mxCell id="AGo5-dNBtOsMC9ljmfEM-49" value="Funcionário" style="text;html=1;align=center;verticalAlign=middle;resizable=0;points=[];autosize=1;strokeColor=none;fillColor=none;fontSize=16;" vertex="1" parent="AGo5-dNBtOsMC9ljmfEM-121">
          <mxGeometry width="110" height="30" as="geometry" />
        </mxCell>
        <mxCell id="AGo5-dNBtOsMC9ljmfEM-85" value="Telefone" style="rounded=0;whiteSpace=wrap;html=1;" vertex="1" parent="AGo5-dNBtOsMC9ljmfEM-121">
          <mxGeometry x="20" y="70.01" width="60" height="20" as="geometry" />
        </mxCell>
        <mxCell id="AGo5-dNBtOsMC9ljmfEM-53" value="Nome" style="rounded=0;whiteSpace=wrap;html=1;" vertex="1" parent="AGo5-dNBtOsMC9ljmfEM-121">
          <mxGeometry x="20" y="40" width="60" height="20" as="geometry" />
        </mxCell>
        <mxCell id="AGo5-dNBtOsMC9ljmfEM-54" value="Função exercida" style="rounded=0;whiteSpace=wrap;html=1;" vertex="1" parent="AGo5-dNBtOsMC9ljmfEM-121">
          <mxGeometry x="90" y="40" width="113" height="20" as="geometry" />
        </mxCell>
        <mxCell id="AGo5-dNBtOsMC9ljmfEM-58" value="..." style="rounded=0;whiteSpace=wrap;html=1;" vertex="1" parent="AGo5-dNBtOsMC9ljmfEM-121">
          <mxGeometry x="90" y="70.01" width="113" height="20" as="geometry" />
        </mxCell>
        <mxCell id="AGo5-dNBtOsMC9ljmfEM-118" value="Solicita serviço" style="shape=singleArrow;whiteSpace=wrap;html=1;arrowWidth=0.4444444444444457;arrowSize=0.3933333333333326;fillColor=#f5f5f5;strokeColor=#666666;fontColor=#333333;gradientColor=none;shadow=1;" vertex="1" parent="1">
          <mxGeometry x="-887" y="70.01" width="110" height="60" as="geometry" />
        </mxCell>
        <mxCell id="AGo5-dNBtOsMC9ljmfEM-117" value="[Registra]" style="shape=singleArrow;whiteSpace=wrap;html=1;arrowWidth=0.4444444444444457;arrowSize=0.3933333333333326;fillColor=#f5f5f5;strokeColor=#666666;fontColor=#333333;gradientColor=none;shadow=1;" vertex="1" parent="1">
          <mxGeometry x="-570" y="70.01" width="80" height="60" as="geometry" />
        </mxCell>
        <mxCell id="AGo5-dNBtOsMC9ljmfEM-122" value="[Registra]" style="shape=singleArrow;whiteSpace=wrap;html=1;arrowWidth=0.4444444444444457;arrowSize=0.3933333333333326;fillColor=#f5f5f5;strokeColor=#666666;fontColor=#333333;gradientColor=none;shadow=1;rotation=90;" vertex="1" parent="1">
          <mxGeometry x="-640" y="165" width="110" height="60" as="geometry" />
        </mxCell>
        <mxCell id="AGo5-dNBtOsMC9ljmfEM-123" value="" style="shape=note2;boundedLbl=1;whiteSpace=wrap;html=1;size=16;verticalAlign=top;align=center;" vertex="1" parent="1">
          <mxGeometry x="-780" y="160" width="160" height="75" as="geometry" />
        </mxCell>
        <mxCell id="AGo5-dNBtOsMC9ljmfEM-124" value="O funcionário pode registrar um serviço como &lt;b&gt;agendamento&lt;/b&gt; ou cadastrar diretamente um &lt;b&gt;serviço realizado&lt;/b&gt;." style="text;html=1;align=center;verticalAlign=middle;whiteSpace=wrap;rounded=0;" vertex="1" parent="1">
          <mxGeometry x="-780" y="170" width="150" height="58.75" as="geometry" />
        </mxCell>
      </root>
    </mxGraphModel>
  </diagram>
</mxfile>
